<?xml version="1.0" standalone="no"?>
<!DOCTYPE svg PUBLIC "-//W3C//DTD SVG 20010904//EN"
 "http://www.w3.org/TR/2001/REC-SVG-20010904/DTD/svg10.dtd">
<svg version="1.0" xmlns="http://www.w3.org/2000/svg"
 width="1000.000000pt" height="1000.000000pt" viewBox="0 0 1000.000000 1000.000000"
 preserveAspectRatio="xMidYMid meet">
<metadata>
Created by potrace 1.11, written by Peter Selinger 2001-2013
</metadata>
<g transform="translate(0.000000,1000.000000) scale(0.100000,-0.100000)"
fill="#000000" stroke="none">
<path d="M4967 9704 c-1 -1 -42 -5 -92 -9 -49 -4 -99 -9 -110 -12 -11 -2 -36
-6 -55 -9 -19 -2 -42 -6 -50 -9 -8 -2 -32 -7 -54 -11 -21 -3 -71 -14 -110 -25
-39 -11 -80 -22 -90 -24 -180 -42 -531 -209 -728 -346 -15 -11 -31 -19 -37
-19 -5 0 -11 -3 -13 -8 -1 -4 -43 -39 -93 -77 -95 -74 -118 -94 -248 -217 -45
-43 -77 -78 -72 -78 6 0 19 11 29 25 10 14 24 25 30 25 6 0 18 8 27 18 16 18
80 72 144 121 22 17 46 36 54 43 34 29 201 137 201 130 0 -4 4 -2 8 4 20 31
380 211 458 230 16 4 34 10 39 14 6 4 37 16 70 25 73 22 74 23 103 29 12 3 26
7 30 10 5 3 22 8 38 10 16 3 39 8 52 11 46 10 58 13 102 20 25 4 54 9 65 12
11 2 40 6 65 8 25 3 70 7 100 10 75 8 469 7 500 0 14 -3 45 -8 70 -10 25 -3
68 -9 95 -15 28 -6 59 -12 70 -14 52 -8 98 -20 190 -48 55 -17 105 -33 110
-37 6 -3 12 -6 15 -7 7 -1 38 -14 87 -36 24 -10 53 -23 65 -28 13 -6 55 -28
93 -50 39 -22 78 -43 88 -46 9 -4 17 -10 17 -15 0 -5 7 -9 15 -9 8 0 15 -4 15
-10 0 -5 6 -10 13 -10 7 0 23 -9 35 -20 12 -11 25 -20 30 -20 5 0 17 -9 27
-20 10 -11 22 -20 27 -20 4 0 16 -8 26 -17 10 -10 35 -31 56 -48 83 -65 216
-191 216 -205 0 -5 9 -12 20 -15 11 -4 19 -9 17 -13 -2 -4 9 -20 25 -35 15
-15 28 -23 28 -18 0 5 -7 16 -15 24 -8 8 -11 19 -7 23 4 5 3 6 -1 2 -10 -7
-47 26 -47 42 0 5 -9 15 -20 22 -11 7 -20 16 -20 20 0 25 -351 338 -378 338
-5 0 -15 6 -21 14 -19 22 -206 130 -306 176 -140 65 -152 70 -167 70 -8 0 -18
4 -24 8 -9 9 -136 48 -182 57 -12 2 -25 6 -30 8 -7 5 -186 38 -232 43 -108 12
-356 24 -363 18z"/>
<path d="M3181 8828 c-14 -23 -14 -23 8 -4 22 20 25 26 13 26 -4 0 -13 -10
-21 -22z"/>
<path d="M6790 8824 c0 -13 18 -39 24 -34 2 3 -2 14 -10 24 -8 11 -14 16 -14
10z"/>
<path d="M2864 8368 c-27 -46 -56 -96 -65 -113 -8 -16 -36 -67 -62 -112 -159
-279 -300 -617 -351 -843 -22 -100 -25 -131 -21 -240 6 -171 26 -307 67 -448
8 -29 9 -45 2 -50 -34 -24 -65 -113 -89 -257 -13 -81 -14 -410 -1 -470 3 -16
9 -46 12 -65 3 -19 8 -46 10 -59 8 -42 32 -134 47 -183 8 -26 12 -49 9 -52 -3
-4 0 -6 6 -6 7 0 12 -6 12 -14 0 -35 89 -167 196 -292 76 -89 224 -239 224
-228 0 6 -10 20 -22 31 -13 11 -30 30 -38 43 -8 12 -30 41 -49 64 -136 165
-244 344 -270 446 -22 88 -34 166 -35 217 -1 24 -4 43 -7 43 -3 0 -7 26 -8 58
-1 31 -5 71 -7 87 -3 17 -7 111 -9 210 -6 242 19 371 80 418 11 8 80 1 135
-13 38 -10 112 -55 148 -89 12 -12 27 -19 32 -16 6 4 7 -1 3 -11 -5 -13 -2
-15 14 -10 12 4 25 1 33 -9 8 -10 9 -15 1 -15 -6 0 -11 5 -11 10 0 6 -4 10
-10 10 -17 0 -10 -14 17 -34 16 -12 23 -14 18 -5 -24 39 27 -17 56 -62 34 -53
40 -55 45 -12 1 15 5 48 8 73 4 25 8 65 11 90 5 45 14 114 20 160 2 14 7 48
10 75 4 28 8 57 10 65 2 8 7 30 10 47 11 66 36 167 70 278 l35 115 -40 65
c-111 182 -191 382 -226 570 -13 71 -15 125 -11 255 7 178 9 205 32 294 9 32
14 61 12 63 -2 2 -26 -34 -53 -79z"/>
<path d="M7090 8448 c0 -4 7 -32 15 -63 24 -95 30 -164 29 -355 -1 -156 -5
-198 -23 -265 -12 -44 -24 -89 -26 -101 -16 -70 -104 -261 -180 -390 l-45 -76
24 -78 c22 -68 61 -214 71 -260 2 -8 6 -26 9 -40 9 -37 15 -76 26 -170 6 -47
13 -98 15 -115 4 -28 25 -197 30 -240 1 -11 3 -24 4 -30 0 -5 20 19 44 53 41
60 69 85 46 40 l-12 -23 20 20 c13 13 17 24 12 31 -6 7 -3 16 8 25 16 13 17
12 4 -3 -26 -34 5 -18 52 27 27 25 52 45 58 45 5 0 9 4 9 8 0 5 21 18 48 30
101 45 202 53 202 16 0 -8 5 -12 10 -9 6 3 10 2 10 -4 0 -5 5 -22 12 -38 24
-59 32 -125 33 -260 0 -62 4 -113 8 -113 5 0 5 -5 1 -11 -7 -13 -9 -29 -19
-179 -4 -58 -9 -116 -10 -130 -2 -14 -4 -38 -4 -53 -1 -20 -5 -26 -13 -21 -10
6 -10 5 -1 -8 7 -8 10 -17 7 -20 -3 -3 -7 -21 -9 -39 -18 -141 -54 -231 -152
-378 -42 -64 -79 -118 -83 -121 -3 -3 -30 -36 -60 -75 -30 -38 -57 -72 -60
-75 -3 -3 -16 -18 -30 -34 -24 -28 -24 -28 -2 -17 12 6 22 16 22 22 0 6 5 7
10 4 6 -3 10 -2 10 4 0 5 33 43 73 85 194 201 307 379 332 525 3 19 8 37 10
41 2 3 6 17 8 31 3 13 12 62 21 109 9 47 19 130 22 185 3 54 6 101 8 103 3 2
1 16 -4 31 -4 16 -4 34 0 42 5 7 6 18 2 23 -3 6 -7 31 -8 56 -2 66 -14 150
-26 179 -5 14 -9 27 -8 29 8 14 -21 86 -60 149 -10 16 -10 29 3 69 61 193 82
479 47 639 -27 119 -24 108 -60 216 -48 145 -114 297 -220 504 -105 207 -260
476 -260 453z"/>
<path d="M3960 7858 c-54 -14 -120 -42 -120 -51 0 -5 -4 -6 -8 -3 -5 3 -24 -7
-43 -22 -43 -33 -159 -153 -159 -163 0 -5 -13 -27 -29 -51 -23 -35 -70 -126
-76 -148 -2 -5 -7 -18 -28 -75 -7 -16 -12 -32 -13 -35 0 -3 -4 -23 -9 -45 -5
-22 -9 -42 -10 -45 0 -3 -4 -10 -8 -17 -4 -6 -2 -15 4 -19 7 -4 9 -3 5 4 -3 6
-1 14 4 17 6 4 16 17 21 28 5 12 23 42 39 67 17 25 33 53 36 63 4 9 10 17 15
17 5 0 9 6 9 13 0 23 143 169 204 209 84 54 150 71 281 71 92 0 130 -9 203
-48 77 -40 138 -94 205 -180 60 -76 59 -75 76 -107 8 -16 18 -28 23 -28 5 0 7
-3 5 -7 -3 -5 2 -15 11 -22 14 -13 15 -12 8 10 -4 13 -9 34 -12 47 -26 124
-143 311 -251 402 -56 48 -134 88 -205 106 -75 20 -134 23 -178 12z"/>
<path d="M5879 7827 c-13 -4 -33 -10 -44 -11 -57 -7 -154 -59 -218 -116 -80
-70 -144 -160 -195 -270 -27 -59 -74 -200 -67 -200 1 0 22 30 46 68 24 37 46
69 49 72 3 3 21 25 40 50 78 101 188 183 282 209 47 13 175 22 192 13 4 -2 27
-6 50 -8 23 -2 63 -12 89 -23 26 -11 51 -22 55 -23 14 -5 47 -34 118 -103 68
-67 149 -180 208 -290 27 -49 27 -49 22 -15 -2 19 -5 35 -6 35 -1 0 -4 14 -6
30 -2 17 -8 39 -13 50 -5 11 -15 36 -21 55 -82 232 -255 426 -420 470 -54 15
-132 18 -161 7z"/>
<path d="M4513 5620 c0 -14 4 -29 8 -35 4 -5 10 -26 14 -45 13 -61 66 -183
111 -251 74 -112 174 -188 284 -216 33 -8 128 -4 170 7 150 39 332 212 417
396 10 21 20 41 23 44 7 7 31 70 36 95 2 11 -1 8 -7 -7 -6 -16 -15 -28 -20
-28 -5 0 -8 -3 -6 -8 1 -4 -25 -45 -57 -92 -59 -84 -216 -250 -238 -250 -6 0
-19 -7 -29 -16 -9 -8 -23 -17 -31 -18 -7 -2 -21 -6 -30 -10 -9 -4 -22 -9 -30
-10 -7 -2 -21 -6 -30 -11 -19 -8 -96 -9 -169 -3 -123 11 -262 146 -353 343
-17 39 -39 86 -48 105 -14 31 -16 32 -15 10z"/>
<path d="M5044 4978 c3 -13 10 -54 16 -93 6 -38 13 -83 16 -100 14 -90 25
-140 32 -146 4 -4 53 -26 109 -48 56 -22 122 -49 145 -60 94 -42 652 -270 655
-268 1 2 -218 168 -488 370 -363 272 -488 361 -485 345z"/>
<path d="M4924 4972 c-25 -20 17 11 -509 -383 -236 -177 -437 -328 -445 -336
-13 -12 -11 -12 15 1 17 8 210 88 430 179 220 91 416 173 437 181 40 17 42 22
63 161 3 22 10 65 15 95 18 105 20 120 18 120 -2 -1 -12 -8 -24 -18z"/>
<path d="M6915 4971 c-3 -5 -2 -12 3 -15 5 -3 9 1 9 9 0 17 -3 19 -12 6z"/>
<path d="M6880 4875 c0 -8 2 -15 4 -15 2 0 6 7 10 15 3 8 1 15 -4 15 -6 0 -10
-7 -10 -15z"/>
<path d="M6870 4830 c-6 -11 -8 -20 -4 -20 4 0 -1 -9 -11 -20 -10 -11 -14 -20
-10 -20 5 0 4 -5 -3 -12 -7 -7 -12 -20 -12 -29 0 -10 -6 -20 -12 -22 -8 -3 -6
-6 5 -6 15 -1 19 5 16 25 0 3 7 16 15 30 9 13 14 24 10 24 -4 0 -1 7 6 15 7 8
9 15 6 15 -4 0 -2 9 4 20 6 11 8 20 6 20 -3 0 -10 -9 -16 -20z"/>
<path d="M3194 4796 c1 -8 5 -18 8 -22 4 -3 5 1 4 10 -1 8 -5 18 -8 22 -4 3
-5 -1 -4 -10z"/>
<path d="M3216 4715 c4 -8 8 -15 10 -15 2 0 4 7 4 15 0 8 -4 15 -10 15 -5 0
-7 -7 -4 -15z"/>
<path d="M3220 4680 c0 -5 5 -10 10 -10 6 0 10 5 10 10 0 6 -4 10 -10 10 -5 0
-10 -4 -10 -10z"/>
<path d="M6805 4680 c-3 -5 -4 -10 0 -10 3 0 -2 -15 -12 -32 -9 -18 -18 -36
-19 -40 -1 -5 -3 -10 -4 -13 -1 -3 -3 -8 -4 -12 -1 -5 -7 -18 -14 -29 -6 -12
-8 -24 -5 -28 3 -3 1 -6 -5 -6 -7 0 -12 -4 -12 -9 0 -5 -8 -26 -17 -47 -9 -22
-16 -42 -15 -46 1 -5 -3 -8 -9 -8 -5 0 -8 -4 -5 -9 3 -4 -1 -17 -9 -27 -8 -10
-15 -27 -15 -36 0 -10 -4 -18 -10 -18 -5 0 -10 -4 -10 -10 0 -13 -59 -140 -73
-158 -6 -8 -12 -22 -14 -31 -1 -10 -23 -53 -48 -97 -24 -43 -45 -84 -45 -91 0
-6 -3 -13 -7 -15 -5 -1 -17 -21 -28 -43 -11 -22 -42 -78 -69 -125 -27 -47 -58
-101 -69 -120 -30 -54 -111 -175 -119 -178 -5 -2 -8 -8 -8 -12 0 -13 -132
-198 -181 -255 -129 -149 -165 -188 -213 -237 -32 -32 -59 -58 -61 -58 -2 0
-15 -10 -28 -22 -68 -65 -198 -156 -293 -205 -74 -38 -224 -98 -224 -88 0 2
-15 -1 -32 -6 -93 -28 -226 -29 -378 -5 -68 11 -213 70 -305 124 -28 16 -38
23 -69 50 -8 6 -19 12 -23 12 -24 0 -210 182 -312 304 -61 73 -211 280 -211
291 0 3 -17 31 -37 62 -20 32 -49 81 -65 108 -47 86 -210 417 -223 455 -4 13
-28 68 -40 95 -8 16 -32 77 -55 135 -22 58 -45 114 -50 125 -5 11 -14 38 -21
60 -6 22 -15 44 -20 49 -5 6 -9 20 -9 31 0 12 -3 25 -7 29 -4 3 -8 16 -10 28
-2 12 -8 27 -13 33 -6 7 -11 24 -12 38 -1 15 -8 29 -14 31 -13 5 13 -102 34
-140 5 -10 10 -22 11 -27 2 -29 14 -77 20 -77 4 0 8 -12 9 -26 1 -14 5 -31 9
-37 4 -7 8 -19 10 -27 1 -8 6 -23 11 -35 23 -47 41 -103 35 -109 -4 -3 -1 -6
6 -6 7 0 10 -4 6 -9 -3 -5 -1 -12 5 -16 5 -3 10 -13 10 -21 0 -8 10 -36 21
-62 12 -25 22 -51 24 -57 1 -5 7 -21 13 -35 27 -65 35 -85 37 -90 1 -5 18 -42
59 -130 11 -25 21 -47 21 -50 0 -3 6 -14 12 -25 6 -11 35 -67 65 -125 30 -58
67 -127 83 -155 34 -62 189 -298 207 -316 8 -8 27 -32 43 -54 72 -94 211 -235
305 -305 18 -14 39 -31 46 -37 7 -7 16 -13 19 -13 4 0 19 -9 33 -19 26 -18
152 -85 162 -86 3 0 11 -4 19 -9 10 -7 177 -56 189 -56 1 0 3 -1 5 -1 21 -10
247 -13 297 -4 120 20 336 105 393 153 9 8 17 11 17 6 0 -5 4 -4 8 3 4 6 32
28 64 50 198 134 455 422 631 703 25 41 50 80 55 85 8 10 72 122 144 250 56
102 182 359 180 368 -1 4 2 7 8 7 6 0 10 5 10 10 0 6 7 27 17 48 9 20 17 39
18 42 1 3 8 21 17 40 33 76 142 341 144 350 0 3 4 14 9 25 26 64 35 88 35 91
0 8 -19 3 -25 -6z"/>
<path d="M3230 4646 c0 -9 5 -16 10 -16 6 0 10 4 10 9 0 6 -4 13 -10 16 -5 3
-10 -1 -10 -9z"/>
<path d="M3965 2022 c-63 -13 -108 -78 -164 -237 -58 -162 -76 -270 -75 -445
2 -220 62 -426 180 -610 54 -84 83 -110 140 -125 110 -28 262 37 453 193 125
102 315 296 434 441 18 22 17 23 -54 104 -396 453 -746 713 -914 679z"/>
<path d="M5870 2019 c-176 -33 -479 -280 -833 -680 l-67 -76 22 -29 c94 -120
306 -336 429 -436 193 -157 343 -221 455 -192 66 17 116 73 187 213 93 183
135 358 132 546 -4 168 -24 277 -82 438 -68 190 -122 238 -243 216z"/>
</g>
</svg>
