<?xml version="1.0" standalone="no"?>
<!DOCTYPE svg PUBLIC "-//W3C//DTD SVG 20010904//EN"
 "http://www.w3.org/TR/2001/REC-SVG-20010904/DTD/svg10.dtd">
<svg version="1.0" xmlns="http://www.w3.org/2000/svg"
 width="1000.000000pt" height="1000.000000pt" viewBox="0 0 1000.000000 1000.000000"
 preserveAspectRatio="xMidYMid meet">
<metadata>
Created by potrace 1.11, written by Peter Selinger 2001-2013
</metadata>
<g transform="translate(0.000000,1000.000000) scale(0.100000,-0.100000)"
fill="#000000" stroke="none">
<path d="M4947 9703 c-2 -1 -39 -5 -83 -8 -76 -5 -120 -10 -174 -21 -14 -2
-32 -5 -40 -5 -8 0 -26 -5 -40 -9 -14 -5 -41 -12 -60 -15 -38 -6 -65 -13 -65
-15 0 -1 -9 -3 -20 -5 -26 -5 -59 -13 -62 -15 -2 -2 -7 -4 -13 -5 -5 -1 -12
-4 -15 -5 -5 -3 -6 -3 -50 -15 -16 -4 -34 -10 -40 -14 -5 -3 -19 -7 -29 -8
-11 -2 -25 -8 -32 -14 -7 -5 -25 -12 -40 -15 -16 -3 -32 -11 -36 -17 -4 -7 -8
-8 -8 -3 0 4 -11 1 -25 -8 -14 -9 -25 -14 -25 -11 0 7 -203 -97 -211 -108 -3
-5 -8 -8 -10 -7 -8 4 -59 -24 -59 -32 0 -4 -3 -7 -7 -6 -9 3 -64 -32 -74 -45
-3 -5 -9 -7 -12 -5 -4 1 -15 -4 -25 -13 -10 -8 -26 -18 -35 -22 -9 -3 -17 -11
-17 -17 0 -6 -4 -9 -9 -5 -5 3 -16 -4 -24 -15 -7 -11 -17 -17 -20 -14 -4 4 -9
-1 -13 -10 -3 -9 -12 -16 -20 -16 -8 0 -14 -4 -14 -9 0 -4 -18 -20 -39 -34
-22 -15 -54 -40 -70 -56 -17 -17 -31 -27 -31 -24 0 3 -27 -21 -59 -55 -33 -34
-65 -62 -71 -62 -6 0 -8 -4 -5 -10 3 -5 1 -10 -4 -10 -6 0 -11 -7 -11 -15 0
-8 -6 -15 -12 -15 -7 -1 -33 -22 -58 -47 -25 -26 -34 -38 -20 -27 14 10 28 24
32 29 4 6 11 10 16 10 5 0 31 23 58 50 26 28 50 50 53 50 3 0 5 4 3 8 -1 5 2
6 7 3 5 -4 13 -1 18 6 4 7 24 25 43 39 19 15 46 37 61 50 14 13 37 30 52 38
15 8 36 22 46 33 11 10 24 18 29 18 5 0 21 11 35 24 14 13 28 21 31 18 3 -3 6
0 6 6 0 7 7 12 15 12 8 0 15 5 15 11 0 5 5 7 10 4 6 -3 13 1 16 9 3 9 10 13
15 10 5 -3 9 0 9 6 0 6 4 9 8 6 5 -3 18 3 29 14 12 10 24 16 27 13 3 -4 6 -1
6 6 0 7 4 10 9 7 5 -3 14 1 21 9 7 8 18 15 26 15 7 0 20 7 28 16 9 8 16 13 16
10 0 -3 27 8 60 25 33 16 61 29 62 28 2 -1 14 4 28 11 14 8 27 15 30 15 3 0
15 6 28 13 12 7 22 10 22 7 0 -3 10 0 23 7 12 7 25 13 30 14 4 1 8 2 10 4 1 1
10 3 20 5 10 2 26 7 35 11 9 4 26 9 36 11 11 2 25 8 31 13 7 5 15 7 18 4 3 -3
12 -2 19 2 7 5 18 9 23 11 6 1 20 4 33 7 57 15 68 17 87 21 11 2 31 6 45 9 14
4 39 8 55 10 17 3 46 8 65 11 187 37 593 36 800 -1 19 -3 44 -7 55 -8 11 -1
26 -5 33 -9 6 -5 16 -6 21 -2 5 3 13 0 16 -6 4 -5 13 -8 21 -5 7 3 16 1 20 -5
3 -6 12 -8 20 -5 7 3 16 1 20 -5 3 -6 12 -8 19 -5 7 2 18 -1 24 -7 6 -6 11 -7
11 -3 0 5 6 4 13 -2 7 -6 24 -13 39 -16 14 -2 36 -9 47 -16 12 -6 21 -8 21 -5
0 3 11 -2 24 -11 14 -8 26 -15 28 -14 15 7 214 -92 315 -157 46 -29 85 -53 88
-53 3 0 16 -9 29 -21 13 -12 27 -20 31 -19 4 1 15 -9 26 -21 10 -12 19 -19 19
-16 0 4 8 -1 19 -10 10 -10 37 -34 61 -53 23 -19 54 -46 68 -60 15 -14 30 -24
34 -22 4 1 8 -5 8 -14 0 -8 5 -12 10 -9 6 3 10 -1 10 -10 0 -9 3 -14 8 -12 8
6 33 -19 26 -25 -2 -3 22 -30 53 -61 32 -31 68 -69 80 -84 17 -22 21 -24 19
-9 -1 10 -11 25 -21 32 -10 8 -15 14 -11 14 4 0 1 6 -6 13 -7 8 -24 28 -37 46
-14 17 -30 30 -37 27 -8 -3 -16 0 -20 6 -4 6 -3 8 4 4 6 -3 13 -2 17 4 3 5 -1
10 -9 10 -9 0 -15 4 -14 8 2 4 -39 50 -89 102 -51 52 -93 91 -93 88 0 -4 -20
13 -44 36 -24 24 -58 52 -75 62 -17 10 -31 22 -31 26 0 4 -7 8 -15 8 -8 0 -15
5 -15 10 0 6 -6 10 -14 10 -8 0 -16 7 -20 15 -3 8 -12 15 -21 15 -8 0 -15 5
-15 11 0 5 -4 7 -10 4 -5 -3 -10 -2 -10 2 0 10 -131 88 -142 85 -5 -1 -8 2 -8
7 0 10 -39 27 -52 23 -5 -1 -8 2 -8 7 0 5 -10 12 -22 16 -13 4 -25 8 -28 10
-61 27 -76 33 -80 32 -3 -1 -17 5 -30 14 -21 14 -44 22 -95 35 -5 1 -27 9 -48
18 -21 9 -42 14 -47 11 -6 -4 -10 -1 -10 5 0 7 -6 10 -14 7 -8 -3 -17 -3 -20
1 -4 3 -12 7 -19 8 -7 2 -23 6 -37 9 -14 4 -34 8 -45 10 -11 2 -31 6 -45 10
-24 5 -73 13 -135 21 -96 12 -371 25 -378 17z"/>
<path d="M2890 8433 c-16 -27 -30 -54 -30 -60 0 -7 -4 -13 -9 -13 -5 0 -13
-10 -17 -22 -4 -13 -10 -25 -14 -28 -20 -15 -247 -453 -305 -590 -29 -69 -75
-188 -78 -205 -2 -5 -6 -16 -10 -22 -5 -7 -5 -13 -1 -13 3 0 2 -6 -4 -13 -6
-7 -13 -24 -16 -37 -3 -14 -15 -59 -27 -100 -30 -105 -32 -343 -5 -510 2 -14
7 -43 10 -65 4 -22 9 -47 12 -55 3 -8 8 -26 10 -40 3 -14 11 -37 18 -52 12
-23 12 -29 -4 -45 -19 -21 -50 -82 -55 -110 -2 -10 -4 -20 -6 -23 -1 -3 -3 -9
-4 -15 -2 -5 -4 -12 -5 -15 -4 -10 -11 -47 -17 -90 -9 -58 -8 -419 1 -485 4
-27 8 -56 8 -62 1 -7 4 -13 7 -13 3 0 7 -15 8 -33 3 -31 10 -72 13 -72 1 0 3
-9 5 -20 5 -26 13 -60 15 -60 1 0 3 -13 5 -30 2 -16 9 -31 14 -33 5 -2 7 -10
4 -18 -3 -8 1 -14 8 -14 7 0 10 -3 6 -6 -7 -7 51 -117 64 -122 5 -2 9 -9 9
-15 0 -7 11 -24 25 -39 14 -15 25 -30 25 -32 0 -12 82 -107 158 -183 35 -35
60 -63 56 -63 -5 0 7 -16 26 -35 19 -19 40 -35 46 -35 7 0 20 -10 28 -22 9
-12 16 -17 16 -11 0 6 -12 21 -26 32 -15 12 -23 21 -18 21 5 0 -3 12 -18 28
-25 25 -45 47 -90 101 -10 12 -18 24 -18 27 0 4 -10 15 -22 25 -11 11 -18 19
-14 19 4 0 1 6 -6 14 -7 7 -20 24 -28 36 -8 12 -20 28 -26 34 -5 6 -21 30 -34
54 -13 23 -28 42 -32 42 -5 0 -6 5 -3 10 3 6 1 10 -4 10 -6 0 -10 3 -9 8 1 4
-10 31 -25 59 -15 29 -27 55 -27 58 0 3 0 6 -1 8 -2 7 -10 44 -13 57 -1 8 -5
22 -8 30 -11 27 -34 206 -45 345 -8 113 -8 412 0 463 4 24 14 59 22 78 8 19
12 34 9 34 -3 0 9 13 26 30 25 24 36 28 67 24 100 -12 170 -46 245 -117 17
-17 35 -26 44 -23 8 3 13 2 10 -3 -3 -5 1 -11 9 -15 8 -3 15 -10 15 -16 0 -6
-7 -4 -16 4 -26 26 -29 18 -4 -9 13 -14 28 -25 34 -24 6 0 5 3 -2 6 -6 2 -9 9
-6 15 7 11 83 -90 84 -111 0 -22 12 -5 15 21 6 52 17 135 20 158 2 14 6 48 10
75 7 71 22 180 29 230 12 77 17 96 41 190 14 55 28 107 30 115 2 8 11 35 19
59 27 75 27 93 2 132 -88 133 -203 404 -232 549 -3 14 -9 42 -14 64 -5 21 -7
118 -5 215 4 170 6 197 19 258 4 15 9 41 12 57 3 16 9 37 15 48 5 10 7 18 3
18 -3 0 -1 7 6 15 7 8 10 15 6 15 -3 0 -19 -21 -36 -47z"/>
<path d="M7070 8452 c0 -4 5 -13 12 -20 7 -7 9 -12 6 -12 -4 0 -1 -21 7 -47
23 -77 29 -147 29 -328 1 -154 -4 -215 -18 -256 -3 -8 -8 -27 -11 -44 -7 -33
-9 -43 -18 -65 -18 -49 -49 -136 -51 -145 -3 -17 -106 -217 -143 -279 l-36
-59 23 -71 c13 -39 24 -73 25 -76 10 -48 18 -77 23 -85 3 -5 7 -16 8 -25 1 -8
5 -25 8 -37 21 -79 30 -137 51 -303 3 -22 7 -58 10 -80 3 -22 7 -59 10 -82 3
-24 8 -61 11 -83 6 -39 10 -66 13 -95 1 -8 10 1 21 20 18 35 110 147 110 135
0 -3 -12 -23 -27 -43 -16 -22 0 -10 39 30 96 98 173 140 276 152 38 4 47 1 74
-24 17 -17 28 -30 24 -30 -4 0 -2 -9 4 -21 27 -49 34 -110 34 -299 0 -171 -10
-326 -29 -465 -12 -90 -18 -122 -24 -135 -4 -8 -7 -22 -6 -30 1 -8 -5 -27 -12
-42 -7 -15 -13 -31 -13 -35 1 -10 -33 -86 -40 -93 -4 -3 -17 -25 -31 -50 -27
-50 -28 -51 -65 -97 -14 -18 -23 -33 -19 -33 4 0 -3 -9 -16 -20 -13 -10 -21
-19 -16 -20 4 0 -1 -8 -10 -18 -20 -21 -35 -40 -78 -97 -16 -22 -32 -41 -36
-43 -4 -2 -25 -24 -45 -50 -21 -26 -29 -39 -18 -29 11 9 25 17 31 17 14 0 44
35 36 43 -3 4 1 7 10 7 9 0 19 5 23 12 5 7 3 8 -7 3 -8 -5 16 20 54 56 37 36
67 69 67 72 0 4 14 22 30 40 67 71 100 113 100 125 0 6 5 12 10 12 6 0 10 7
10 15 0 8 4 15 8 15 12 0 73 116 65 124 -4 3 -1 6 6 6 7 0 11 6 8 14 -3 8 -1
16 4 18 5 2 12 17 14 33 2 17 4 30 5 30 2 0 10 34 15 60 2 11 4 20 5 20 1 0 4
14 6 30 2 17 7 41 11 55 8 34 12 59 16 101 2 20 7 40 10 45 6 11 1 384 -6 434
-6 35 -10 59 -22 115 -7 37 -43 114 -63 137 -11 13 -12 23 -3 51 7 19 14 44
16 56 3 11 7 29 9 39 32 134 41 214 40 377 0 138 -8 216 -26 250 -6 11 -11 21
-10 23 3 3 -8 52 -15 72 -3 8 -8 23 -9 32 -16 82 -276 650 -306 669 -5 3 -8 8
-7 10 5 6 -82 163 -92 167 -5 2 -9 8 -9 14 0 14 -74 138 -82 138 -5 0 -8 -4
-8 -8z m103 -3487 c-3 -9 -8 -14 -10 -11 -3 3 -2 9 2 15 9 16 15 13 8 -4z"/>
<path d="M3957 7863 c-3 -2 -13 -5 -24 -8 -30 -5 -111 -43 -118 -55 -4 -6 -10
-8 -15 -5 -5 3 -13 -3 -19 -12 -6 -10 -11 -14 -11 -9 0 9 -130 -119 -130 -128
0 -3 -10 -17 -22 -32 -13 -14 -23 -29 -22 -32 0 -4 -6 -13 -13 -20 -7 -7 -13
-20 -13 -28 0 -8 -4 -14 -10 -14 -5 0 -10 -5 -10 -11 0 -5 -11 -34 -25 -64
-14 -30 -28 -63 -30 -74 -2 -11 -9 -29 -15 -40 -6 -12 -8 -21 -4 -21 3 0 1 -7
-6 -15 -7 -8 -9 -15 -6 -15 4 0 2 -9 -4 -21 -9 -15 -8 -24 1 -35 10 -12 10
-15 -1 -12 -8 2 -15 -5 -16 -15 -1 -12 0 -13 3 -2 2 8 9 13 14 9 5 -3 16 10
24 30 8 19 19 38 25 41 6 4 8 11 5 16 -4 5 -1 9 5 9 6 0 8 5 5 10 -3 6 -1 10
4 10 6 0 11 7 11 15 0 8 5 15 10 15 6 0 10 7 10 15 0 8 5 15 10 15 6 0 10 6
10 14 0 8 7 16 15 20 8 3 15 10 15 15 0 6 18 29 40 53 22 24 40 46 40 51 0 4
6 7 13 7 7 0 23 10 35 23 11 12 27 27 34 32 19 14 96 56 103 55 3 0 6 0 8 1
26 8 48 11 75 10 18 -1 31 2 28 7 -6 10 153 7 185 -4 13 -4 27 -9 32 -10 4 -1
8 -2 10 -4 1 -1 10 -3 19 -5 10 -2 25 -10 34 -19 8 -9 22 -16 30 -16 8 0 14
-4 14 -10 0 -5 5 -10 10 -10 6 0 18 -8 29 -17 10 -10 28 -25 39 -33 11 -9 40
-40 64 -70 23 -30 46 -56 50 -58 5 -2 8 -10 8 -18 0 -8 5 -14 10 -14 6 0 10
-7 10 -15 0 -8 5 -15 10 -15 6 0 10 -7 10 -15 0 -8 5 -15 11 -15 5 0 7 -5 4
-10 -3 -6 1 -13 9 -16 9 -3 13 -10 10 -15 -3 -5 0 -9 6 -9 8 0 10 9 5 28 -4
15 -8 32 -9 37 -5 24 -19 63 -34 95 -9 19 -17 41 -18 49 -2 8 -9 18 -16 22 -7
5 -10 9 -5 9 4 0 -9 22 -28 50 -19 27 -35 52 -35 55 0 19 -138 155 -157 155
-7 0 -13 5 -13 10 0 6 -7 10 -15 10 -8 0 -15 5 -15 10 0 6 -4 10 -9 10 -5 0
-22 5 -38 12 -15 6 -31 12 -35 13 -5 2 -10 4 -13 5 -3 1 -9 4 -15 5 -5 1 -11
4 -12 5 -9 8 -164 20 -171 13z"/>
<path d="M5877 7833 c-2 -1 -14 -5 -28 -7 -13 -2 -25 -5 -26 -7 -2 -1 -7 -3
-13 -4 -5 -1 -12 -4 -15 -5 -3 -1 -9 -3 -14 -4 -5 0 -13 -4 -17 -8 -4 -5 -16
-8 -26 -8 -12 0 -16 -4 -12 -11 4 -7 1 -10 -7 -7 -15 5 -68 -27 -82 -49 -4 -7
-13 -13 -20 -13 -7 0 -29 -18 -51 -40 -21 -22 -36 -40 -33 -40 4 0 -3 -10 -14
-22 -27 -29 -84 -121 -81 -130 1 -5 -2 -8 -7 -8 -7 0 -41 -74 -47 -102 -1 -5
-3 -10 -4 -13 -1 -3 -4 -9 -5 -15 -1 -5 -4 -13 -5 -17 -2 -5 -4 -12 -5 -18 -2
-5 -4 -12 -5 -15 -9 -24 -8 -50 2 -50 6 0 8 3 5 7 -4 3 1 12 11 20 10 9 11 12
2 7 -8 -4 -3 5 12 20 15 16 25 32 22 37 -3 5 2 12 10 15 9 3 16 10 16 16 0 5
6 15 13 23 6 7 21 25 32 41 30 42 141 145 150 141 3 -1 13 6 24 15 11 9 22 14
25 11 3 -4 6 -1 6 5 0 7 8 12 18 12 10 0 22 3 26 8 4 4 12 8 17 8 5 1 10 2 12
4 14 11 175 21 192 11 6 -3 24 -7 40 -8 17 -1 37 -4 45 -6 14 -4 23 -7 70 -25
8 -3 18 -4 23 -4 4 1 7 -2 7 -7 0 -5 9 -12 20 -16 21 -7 189 -165 188 -178 0
-5 8 -19 18 -30 11 -12 28 -39 39 -60 11 -20 23 -37 28 -37 4 0 5 -4 2 -10 -3
-5 -1 -10 4 -10 6 0 11 -7 11 -15 0 -8 5 -15 11 -15 5 0 7 -4 4 -10 -3 -5 -1
-10 5 -10 6 0 9 -4 6 -8 -3 -5 4 -16 15 -25 15 -14 19 -14 19 -2 0 7 -4 16 -8
19 -4 2 -9 18 -10 35 -1 17 -7 43 -14 58 -6 15 -12 31 -13 36 -2 4 -3 8 -5 10
-1 1 -3 9 -5 18 -1 8 -12 35 -24 59 -11 24 -21 50 -21 57 0 7 -5 13 -11 13 -5
0 -7 5 -4 10 3 6 2 10 -3 10 -6 0 -13 11 -16 25 -4 14 -11 25 -17 25 -6 0 -7
5 -4 10 3 6 -1 13 -9 16 -9 3 -16 12 -16 20 0 8 -4 14 -10 14 -5 0 -10 5 -10
12 0 7 -29 40 -65 75 -36 34 -65 60 -65 58 0 -3 -9 4 -20 15 -12 12 -25 18
-30 15 -6 -4 -10 -2 -10 3 0 8 -13 15 -50 26 -3 1 -11 5 -17 9 -7 5 -23 11
-35 13 -26 6 -137 12 -141 7z"/>
<path d="M4490 5646 c0 -8 7 -16 15 -20 8 -3 15 -1 15 4 0 6 -5 10 -11 10 -5
0 -7 5 -4 10 3 6 1 10 -4 10 -6 0 -11 -6 -11 -14z"/>
<path d="M5551 5607 c-9 -23 -50 -90 -71 -114 -5 -7 -10 -17 -10 -23 0 -5 -3
-10 -7 -10 -5 0 -19 -17 -33 -38 -29 -44 -143 -157 -182 -180 -16 -9 -28 -20
-28 -25 0 -4 -4 -5 -10 -2 -5 3 -10 1 -10 -5 0 -6 -4 -9 -9 -5 -5 3 -16 -2
-25 -10 -8 -9 -18 -15 -21 -14 -3 1 -16 -2 -28 -6 -56 -17 -177 -24 -195 -11
-7 5 -15 6 -19 3 -3 -4 -12 -2 -20 5 -7 6 -16 8 -19 5 -4 -3 -13 1 -21 9 -8 8
-18 12 -23 9 -4 -3 -11 2 -14 11 -4 9 -9 14 -12 11 -3 -3 -14 2 -24 11 -10 10
-25 22 -32 28 -26 22 -81 89 -91 111 -6 13 -14 23 -19 23 -4 0 -8 7 -8 15 0 8
-5 15 -12 15 -6 0 -8 3 -5 6 4 4 -2 19 -13 34 -11 16 -20 32 -20 37 -1 4 -9
26 -20 48 -11 22 -19 46 -20 53 0 14 -30 17 -30 2 0 -5 7 -13 16 -18 12 -7 13
-11 5 -17 -9 -5 -7 -13 6 -28 12 -14 13 -18 3 -12 -13 8 -13 7 -1 -8 7 -9 10
-17 6 -17 -4 0 -2 -7 5 -15 7 -8 9 -15 5 -15 -4 0 -2 -6 4 -13 6 -8 8 -17 4
-20 -3 -4 -1 -7 5 -7 7 0 11 -3 10 -7 -3 -12 46 -113 54 -113 5 0 8 -7 8 -15
0 -8 5 -15 10 -15 6 0 10 -6 10 -14 0 -15 120 -139 127 -132 3 2 13 -4 24 -15
11 -11 24 -17 29 -14 6 4 10 1 10 -6 0 -7 3 -9 6 -6 4 3 15 2 26 -4 28 -15 66
-22 118 -22 40 0 100 8 108 13 1 2 7 4 12 5 6 1 11 3 13 5 1 1 11 3 21 5 10 2
22 9 26 15 4 7 10 11 14 11 16 -2 23 1 50 24 16 14 32 25 35 25 9 0 81 71 111
108 14 18 35 44 47 59 13 16 23 34 23 41 0 6 5 12 10 12 6 0 10 5 10 11 0 6 9
24 21 40 11 16 17 29 14 29 -4 0 0 7 9 15 8 9 12 23 9 32 -4 10 -2 14 4 10 12
-7 36 47 26 57 -4 3 -1 6 6 6 7 0 11 6 8 14 -3 8 -1 17 6 20 9 3 9 5 -1 5 -7
1 -16 -9 -21 -22z"/>
<path d="M5035 4963 c3 -21 7 -49 10 -63 3 -14 7 -41 10 -60 3 -19 7 -46 10
-60 2 -13 7 -42 11 -65 3 -22 8 -47 9 -55 2 -8 4 -18 4 -21 1 -4 13 -10 29
-15 36 -10 30 -8 86 -33 27 -13 54 -24 60 -26 6 -1 29 -10 51 -20 63 -28 299
-126 310 -129 6 -2 21 -8 35 -14 69 -31 175 -75 184 -76 6 -1 31 -12 56 -23
25 -12 63 -28 85 -37 l40 -17 -30 25 c-16 14 -34 29 -40 34 -21 17 -144 108
-165 122 -12 8 -28 20 -34 25 -13 13 -414 314 -446 335 -12 8 -32 23 -43 32
-48 39 -87 68 -117 88 -12 8 -28 20 -34 25 -6 6 -28 23 -48 38 l-38 28 5 -38z"/>
<path d="M4894 4958 c-16 -13 -33 -26 -39 -31 -5 -4 -41 -31 -80 -59 -38 -29
-74 -56 -80 -60 -5 -5 -77 -59 -160 -120 -82 -62 -156 -118 -163 -125 -7 -7
-17 -13 -20 -13 -4 0 -18 -10 -32 -23 -14 -13 -32 -27 -41 -33 -9 -5 -32 -21
-50 -36 -19 -14 -89 -67 -156 -117 -116 -85 -152 -118 -100 -89 12 7 24 13 27
14 3 0 14 4 25 9 188 75 242 98 252 107 7 6 13 7 13 4 0 -4 10 -1 23 6 12 7
24 13 27 13 17 2 152 60 156 67 3 4 12 8 20 8 8 0 33 9 57 19 23 11 101 43
172 72 72 29 131 53 133 54 4 3 26 120 37 200 3 23 7 50 9 62 20 101 17 107
-30 71z"/>
<path d="M6885 4911 c-3 -5 -2 -12 3 -15 5 -3 9 1 9 9 0 17 -3 19 -12 6z"/>
<path d="M6876 4882 c2 -3 -1 -11 -7 -19 -8 -9 -8 -13 -1 -13 16 0 26 20 15
30 -6 4 -8 5 -7 2z"/>
<path d="M6862 4831 c-7 -4 -14 -14 -15 -22 -2 -8 -6 -19 -10 -26 -4 -6 -3
-14 3 -18 12 -8 24 20 15 35 -3 5 -2 10 3 10 6 0 12 7 16 15 6 17 6 18 -12 6z"/>
<path d="M3175 4821 c-3 -5 -1 -12 4 -16 6 -3 7 -13 4 -23 -5 -14 -3 -15 7 -5
10 9 10 15 2 26 -7 8 -9 17 -5 20 3 4 4 7 0 7 -3 0 -8 -4 -12 -9z"/>
<path d="M3194 4749 c-3 -6 -1 -14 5 -18 7 -5 9 -16 5 -27 -6 -15 -4 -17 6 -7
8 7 10 19 5 30 -5 10 -7 21 -7 26 3 11 -6 9 -14 -4z"/>
<path d="M6824 4745 c3 -8 1 -15 -5 -15 -6 0 -7 -4 -4 -10 3 -5 1 -10 -5 -10
-6 0 -8 -4 -5 -10 3 -5 1 -10 -6 -10 -7 0 -10 -3 -7 -6 4 -3 0 -17 -7 -31 -8
-15 -12 -30 -9 -35 3 -4 0 -8 -6 -8 -6 0 -8 -4 -5 -10 3 -5 1 -10 -5 -10 -6 0
-9 -4 -5 -9 3 -5 1 -12 -5 -16 -6 -4 -8 -11 -5 -16 4 -5 1 -9 -5 -9 -6 0 -8
-4 -5 -10 3 -5 1 -10 -5 -10 -6 0 -9 -4 -5 -9 3 -5 1 -12 -5 -16 -6 -4 -8 -11
-5 -16 4 -5 1 -9 -5 -9 -7 0 -10 -6 -7 -14 3 -8 3 -16 -1 -18 -6 -3 -44 -74
-47 -88 0 -3 -6 -15 -13 -27 -7 -13 -10 -23 -7 -23 4 0 -1 -7 -9 -16 -9 -8
-14 -20 -11 -25 4 -5 2 -9 -4 -9 -9 0 -32 -55 -30 -74 0 -5 -3 -12 -9 -15 -5
-3 -26 -42 -48 -86 -21 -44 -42 -82 -47 -83 -4 -2 -5 -8 -1 -13 3 -5 0 -9 -5
-9 -6 0 -11 -7 -11 -16 0 -8 -7 -22 -15 -31 -8 -8 -13 -19 -10 -24 4 -5 3 -9
-2 -9 -9 0 -39 -61 -35 -73 1 -5 -2 -6 -8 -2 -5 3 -10 1 -10 -4 0 -18 -3 -26
-17 -39 -7 -7 -13 -20 -13 -28 0 -8 -3 -14 -7 -14 -5 0 -21 -26 -38 -58 -16
-31 -33 -58 -37 -60 -5 -2 -8 -10 -8 -18 0 -8 -4 -14 -8 -14 -5 0 -17 -18 -27
-40 -10 -22 -22 -40 -27 -40 -5 0 -6 -4 -3 -10 3 -5 2 -10 -4 -10 -6 0 -23
-21 -38 -47 -15 -27 -33 -54 -40 -61 -7 -7 -13 -17 -13 -21 0 -4 -8 -16 -18
-27 -10 -10 -29 -35 -42 -54 -23 -32 -35 -47 -75 -91 -8 -9 -15 -20 -15 -25 0
-5 -9 -15 -21 -22 -12 -7 -19 -16 -16 -18 2 -3 -21 -30 -52 -61 -31 -30 -49
-52 -41 -47 8 4 -9 -14 -39 -41 -30 -28 -74 -68 -97 -90 -23 -22 -57 -51 -75
-65 -18 -14 -39 -32 -48 -40 -8 -8 -17 -15 -20 -15 -3 0 -22 -12 -41 -26 -19
-14 -47 -31 -62 -39 -16 -7 -28 -17 -28 -22 0 -5 -4 -6 -10 -3 -5 3 -10 1 -10
-4 0 -6 -3 -10 -7 -9 -5 2 -28 -7 -53 -18 -60 -29 -83 -38 -92 -36 -5 1 -8 -2
-8 -6 0 -5 -6 -9 -12 -10 -7 0 -23 -3 -35 -6 -118 -31 -163 -37 -253 -39 -99
-1 -225 19 -269 43 -12 6 -21 8 -21 4 0 -3 -7 -1 -15 6 -8 7 -15 9 -15 5 0 -4
-6 -2 -13 4 -8 6 -17 8 -20 4 -4 -3 -7 -1 -7 6 0 8 -7 11 -15 7 -8 -3 -15 -1
-15 4 0 4 -16 14 -35 20 -19 6 -35 15 -35 20 0 5 -10 12 -22 16 -12 3 -30 15
-41 25 -11 10 -23 16 -27 14 -5 -3 -11 2 -14 11 -4 9 -9 14 -13 10 -3 -3 -12
3 -20 14 -8 11 -18 20 -22 20 -14 0 -221 193 -221 207 0 3 -15 22 -32 41 -18
19 -43 45 -55 58 -12 13 -19 24 -15 24 4 1 -4 10 -17 20 -13 11 -20 20 -17 20
8 0 -74 111 -94 127 -8 7 -11 13 -6 13 5 0 0 10 -11 23 -11 12 -24 32 -28 45
-3 12 -11 22 -16 22 -5 0 -9 7 -9 15 0 8 -5 15 -10 15 -6 0 -9 3 -8 8 2 7 -21
53 -31 62 -12 10 -193 367 -197 388 -1 7 -9 24 -18 37 -9 13 -16 31 -16 40 0
8 -5 15 -12 15 -6 0 -8 3 -5 6 3 4 1 16 -5 28 -7 11 -13 23 -13 26 -1 3 -8 19
-15 35 -7 17 -14 37 -16 45 -2 8 -8 16 -14 18 -5 2 -8 8 -5 12 3 5 2 17 -4 27
-11 23 -33 76 -33 83 0 3 -5 14 -11 25 -6 11 -12 23 -13 28 -1 4 -3 9 -4 12
-1 3 -3 8 -5 13 -1 4 -7 20 -13 35 -7 16 -12 34 -12 41 0 6 -5 17 -12 24 -7 7
-9 12 -5 12 4 0 1 13 -7 29 -9 16 -13 31 -10 34 3 3 -4 10 -15 17 -21 11 -31
-3 -11 -15 5 -3 6 -13 3 -22 -4 -10 -2 -14 4 -10 7 5 9 -1 5 -15 -4 -15 -2
-19 7 -13 10 5 11 2 6 -14 -3 -11 -2 -21 3 -21 5 0 9 -7 10 -15 1 -8 3 -22 4
-30 1 -8 4 -15 8 -15 4 0 7 -7 8 -15 1 -8 3 -22 4 -30 1 -8 5 -15 9 -15 5 0 6
-7 3 -15 -4 -8 -1 -15 5 -15 6 0 8 -7 5 -15 -4 -8 -1 -15 7 -15 7 0 9 -3 6 -6
-3 -4 -2 -15 4 -26 6 -11 13 -32 15 -46 3 -15 10 -29 15 -33 6 -3 10 -9 10
-13 -1 -3 -1 -7 0 -8 0 -2 3 -14 5 -28 3 -14 9 -27 14 -28 6 -2 8 -8 4 -13 -3
-5 -1 -9 5 -9 6 0 8 -7 5 -15 -4 -8 -1 -15 7 -15 7 0 9 -3 6 -7 -4 -3 -2 -12
4 -20 6 -7 8 -13 4 -13 -4 0 0 -11 9 -25 9 -13 16 -31 16 -40 0 -8 5 -15 12
-15 6 0 8 -3 5 -6 -3 -4 -1 -16 5 -28 7 -11 11 -24 10 -28 -1 -5 3 -8 10 -8 6
0 9 -3 5 -6 -3 -3 3 -21 14 -40 10 -19 19 -41 19 -49 0 -8 5 -15 10 -15 6 0 9
-4 8 -8 -4 -10 64 -145 77 -154 5 -4 6 -8 1 -8 -5 0 -4 -6 2 -12 5 -7 27 -44
47 -83 21 -38 42 -73 48 -76 5 -3 9 -10 9 -15 -1 -15 41 -84 50 -84 4 0 8 -6
8 -13 0 -14 59 -100 72 -105 5 -2 8 -10 8 -17 0 -8 10 -21 23 -30 12 -8 20
-16 17 -18 -2 -1 2 -12 11 -24 9 -13 19 -20 22 -16 4 3 7 0 7 -8 0 -9 17 -35
38 -58 58 -68 192 -206 192 -199 0 6 14 -7 91 -77 9 -8 19 -15 23 -15 4 0 16
-9 28 -20 12 -11 28 -20 35 -20 7 0 13 -5 13 -11 0 -5 4 -8 9 -5 5 4 11 3 13
-2 4 -10 148 -84 148 -76 0 4 6 1 14 -5 8 -7 25 -14 37 -17 40 -9 54 -12 54
-14 0 -2 8 -4 55 -15 100 -23 249 -24 380 -1 14 2 27 5 30 6 3 1 8 2 12 1 4 0
20 4 35 11 15 6 31 12 36 13 4 2 9 4 12 5 3 1 10 4 15 5 6 1 13 4 18 5 4 1 10
2 15 1 4 0 7 4 7 10 0 5 4 8 9 4 5 -3 15 0 23 7 7 7 20 14 28 16 8 2 17 8 18
13 2 5 7 7 12 4 5 -3 15 1 22 9 8 7 24 17 36 20 12 4 22 12 22 17 0 5 7 9 15
9 8 0 15 5 15 10 0 6 7 10 15 10 8 0 15 5 15 10 0 6 6 10 13 10 13 1 59 36
108 83 15 15 31 27 35 27 13 0 222 221 284 300 19 25 38 47 42 48 5 2 8 8 8
13 0 5 8 18 18 28 23 26 31 37 67 91 17 25 38 54 48 64 9 11 17 24 17 29 0 4
11 23 25 41 14 18 25 38 25 44 0 7 5 12 11 12 5 0 7 5 4 10 -3 6 -1 10 4 10 6
0 11 7 11 15 0 8 5 15 10 15 6 0 10 6 10 14 0 7 7 19 15 26 8 7 12 16 9 21 -3
5 -1 9 5 9 6 0 13 11 17 25 3 14 9 25 13 25 4 0 15 19 26 43 10 23 21 44 24
47 4 3 18 28 31 55 14 28 27 52 30 55 9 9 34 65 32 73 -1 4 2 7 7 7 8 0 24 37
22 53 -1 4 4 7 9 7 6 0 10 6 10 14 0 8 9 31 21 50 12 20 18 36 14 36 -3 0 1 7
9 16 9 8 14 20 11 25 -4 5 -1 9 4 9 6 0 11 8 11 18 0 9 7 26 15 36 8 10 12 23
9 27 -3 5 0 9 5 9 6 0 11 8 11 18 0 10 4 22 8 28 8 8 66 143 67 154 0 3 6 15
13 28 7 12 10 26 7 31 -3 5 -1 11 5 13 6 2 12 13 14 24 3 12 9 30 14 40 19 36
37 89 34 103 -2 7 1 10 7 6 6 -3 11 -2 11 4 0 5 -6 12 -12 14 -8 3 -5 6 5 6
10 1 16 5 12 10 -3 5 -1 12 5 16 6 4 8 11 5 16 -4 5 -1 9 6 9 7 0 9 3 6 7 -4
3 -2 12 3 18 8 9 6 14 -6 19 -12 4 -15 2 -10 -9z"/>
<path d="M3214 4676 c-6 -16 12 -56 30 -68 8 -5 7 -8 -1 -8 -7 0 -13 -5 -13
-11 0 -5 5 -7 11 -3 8 4 9 0 4 -15 -4 -13 -2 -21 5 -21 6 0 8 -5 4 -11 -3 -6
0 -15 7 -20 21 -13 33 -11 20 4 -6 8 -8 17 -4 20 3 4 1 7 -6 7 -7 0 -10 4 -6
10 3 5 -2 26 -11 47 -9 21 -16 44 -15 51 1 6 -3 12 -9 12 -6 0 -8 5 -5 10 3 6
4 10 0 10 -3 0 -8 -6 -11 -14z"/>
<path d="M3944 2019 c-47 -14 -88 -62 -120 -142 -16 -40 -29 -74 -30 -77 0 -3
-6 -17 -12 -33 -7 -15 -14 -39 -16 -53 -3 -14 -12 -48 -20 -77 -36 -126 -42
-381 -11 -507 4 -14 8 -32 9 -40 8 -51 19 -91 27 -96 5 -3 7 -9 4 -14 -3 -5
-1 -11 5 -15 5 -3 10 -13 10 -21 0 -20 71 -174 80 -174 4 0 11 -11 14 -25 4
-14 11 -25 16 -25 6 0 10 -6 10 -12 1 -31 73 -92 121 -105 95 -24 228 21 374
128 91 66 235 192 305 266 101 108 195 215 212 242 17 26 16 27 -13 61 -207
239 -414 443 -557 550 -37 27 -72 54 -78 59 -7 5 -27 18 -45 28 -19 10 -45 26
-59 35 -33 22 -143 58 -172 57 -13 0 -37 -5 -54 -10z"/>
<path d="M5807 2005 c-84 -29 -213 -110 -312 -196 -165 -143 -327 -306 -487
-489 -47 -54 -47 -54 -30 -81 55 -86 322 -359 441 -449 18 -14 38 -30 44 -36
32 -29 141 -97 191 -119 110 -48 194 -51 267 -8 68 40 206 304 234 449 34 182
41 356 16 479 -17 91 -22 110 -27 125 -3 8 -8 26 -10 39 -3 14 -8 29 -12 35
-3 6 -7 17 -9 25 -4 26 -65 166 -82 187 -50 61 -124 75 -224 39z"/>
</g>
</svg>
